# xmcd
#
# Track frame offsets:
#	150
#	13945
#	30628
#	43495
#	63248
#	76248
#	91781
#	108674
#	121061
#	138564
#	155417
#	170434
#
# Disc length: 2482 seconds
#
# Revision: 0
# Processed by: cddbd v1.5.1PL2 Copyright (c) Steve Scherf et al.
# Submitted via: dBpowerAMP V4.0
#
DISCID=9909b00c
DTITLE=Various Artist - LINE DANCE COUNTRY
DYEAR=1900
DGENRE=Country
TTITLE0=It Don't Do The Trick
TTITLE1=Ready To Roll
TTITLE2=Take Me As I Am
TTITLE3=Trashy Women
TTITLE4=On The Rebound
TTITLE5=All I Do Is Cry
TTITLE6=Honky Tonk One Man Band
TTITLE7=What The Cow Girls Do
TTITLE8=Ghost Time
TTITLE9=Back On The Stage
TTITLE10=Lady Luck
TTITLE11=A Little Piece Of me
EXTD=
EXTT0=
EXTT1=
EXTT2=
EXTT3=
EXTT4=
EXTT5=
EXTT6=
EXTT7=
EXTT8=
EXTT9=
EXTT10=
EXTT11=
PLAYORDER=
